<?xml version="1.0" encoding="UTF-8"?>
<svg version="1.1" xmlns="http://www.w3.org/2000/svg" width="256" height="256">
<path d="M0 0 C1.30260773 -0.00571014 2.60521545 -0.01142029 3.94729614 -0.01730347 C5.39927664 -0.01854888 6.85125724 -0.01967396 8.30323792 -0.02069092 C9.82574077 -0.02531797 11.34824246 -0.03034247 12.8707428 -0.03573608 C17.01325522 -0.04887146 21.15575143 -0.05530705 25.29828143 -0.05974674 C27.88433282 -0.06267513 30.47037976 -0.06677945 33.05642891 -0.07125092 C41.14182053 -0.08492774 49.22720198 -0.09459396 57.31260437 -0.09845281 C66.65705173 -0.10293667 76.00135305 -0.12049895 85.34575599 -0.1494534 C92.56192243 -0.17104005 99.77804767 -0.18115544 106.99424607 -0.18249393 C111.30750484 -0.18354396 115.62062636 -0.18949392 119.93385124 -0.20731354 C123.98941375 -0.22374262 128.04473507 -0.22597507 132.10031891 -0.21717453 C133.59068254 -0.21640142 135.08105887 -0.2207828 136.57139015 -0.23063278 C138.60207921 -0.24326953 140.63286432 -0.2357141 142.66357422 -0.22705078 C143.8012345 -0.22851734 144.93889479 -0.2299839 146.11102962 -0.2314949 C148.89527893 0.14044189 148.89527893 0.14044189 150.78946018 1.46007156 C151.89527893 3.14044189 151.89527893 3.14044189 151.82008362 6.39385986 C150.82510499 10.42473157 149.25717877 13.59362902 147.09840393 17.08575439 C146.52016876 18.05221893 146.52016876 18.05221893 145.93025208 19.03820801 C144.68001988 21.12109472 143.41327311 23.19332907 142.14527893 25.26544189 C141.2792118 26.69804426 140.41398217 28.13115325 139.54957581 29.5647583 C137.4078536 33.10988008 135.25174678 36.64600093 133.09132385 40.17974854 C131.97998275 42.00158573 130.87441925 43.82672769 129.77223206 45.65411377 C127.98766385 48.61269234 126.19423594 51.56559607 124.39527893 54.51544189 C123.87481995 55.37540771 123.35436096 56.23537354 122.81813049 57.12139893 C122.33827698 57.89854248 121.85842346 58.67568604 121.36402893 59.47637939 C120.75204651 60.47483887 120.75204651 60.47483887 120.12770081 61.49346924 C118.89527893 63.14044189 118.89527893 63.14044189 115.89527893 65.14044189 C113.14785099 65.39491749 113.14785099 65.39491749 109.75296021 65.40113831 C107.82439682 65.41176552 107.82439682 65.41176552 105.85687256 65.42260742 C104.4290005 65.42031352 103.00112878 65.41780381 101.57325745 65.4151001 C100.07193243 65.41944652 98.57060964 65.42462943 97.06929016 65.43058777 C92.98872593 65.44399663 88.90825422 65.44455435 84.82767224 65.44202447 C81.42299143 65.44095603 78.01832944 65.44583487 74.61365265 65.45062989 C66.58243243 65.46173161 58.55125897 65.46215876 50.52003479 65.45611572 C42.23061825 65.45007439 33.94137138 65.46238943 25.6519838 65.48368579 C18.53853286 65.50129008 11.42513598 65.50730501 4.31166404 65.50404805 C0.06155565 65.50223316 -4.18843172 65.50489177 -8.43852043 65.51876259 C-12.43501985 65.5313173 -16.43125439 65.52941936 -20.42774963 65.5163517 C-21.89511262 65.5139812 -23.36249411 65.51673755 -24.82983589 65.52497482 C-26.83167262 65.53540288 -28.83358447 65.525561 -30.8354187 65.5146637 C-32.51645518 65.51491531 -32.51645518 65.51491531 -34.23145199 65.515172 C-37.44528536 65.09602569 -38.83481109 64.42594027 -41.10472107 62.14044189 C-41.99482254 57.00443844 -40.08020207 53.60160655 -37.44065857 49.36309814 C-37.05644241 48.72279663 -36.67222626 48.08249512 -36.27636719 47.42279053 C-35.02335755 45.34162078 -33.75203814 43.27235388 -32.47972107 41.20294189 C-31.61216907 39.7718843 -30.74572102 38.3401569 -29.88035583 36.90777588 C-28.13526951 34.02390284 -26.38271363 31.14478546 -24.62376404 28.26934814 C-22.32594369 24.51017217 -20.05663497 20.73463382 -17.79612732 16.95294189 C-16.54534206 14.86929823 -15.29407453 12.78594396 -14.04222107 10.70294189 C-13.465849 9.73944824 -12.88947693 8.77595459 -12.29563904 7.78326416 C-11.76728455 6.91242187 -11.23893005 6.04157959 -10.69456482 5.14434814 C-10.23944519 4.38968262 -9.78432556 3.63501709 -9.31541443 2.85748291 C-6.87420514 -0.60471208 -3.9553948 0.01034568 0 0 Z " fill="#8AC2FF" transform="translate(62.10472106933594,20.85955810546875)"/>
<path d="M0 0 C1.28570892 -0.00708481 2.57141785 -0.01416962 3.89608765 -0.02146912 C5.3239597 -0.01917521 6.75183142 -0.0166655 8.17970276 -0.01396179 C9.68102777 -0.01830821 11.18235056 -0.02349113 12.68367004 -0.02944946 C16.76423427 -0.04285832 20.84470599 -0.04341604 24.92528796 -0.04088616 C28.32996877 -0.03981772 31.73463077 -0.04469657 35.13930756 -0.04949158 C43.17052778 -0.06059331 51.20170123 -0.06102045 59.23292542 -0.05497742 C67.52234195 -0.04893608 75.81158882 -0.06125113 84.10097641 -0.08254749 C91.21442735 -0.10015178 98.32782423 -0.1061667 105.44129616 -0.10290974 C109.69140456 -0.10109485 113.94139193 -0.10375347 118.19148064 -0.11762428 C122.18798005 -0.13017899 126.1842146 -0.12828106 130.18070984 -0.11521339 C131.64807283 -0.11284289 133.11545432 -0.11559924 134.5827961 -0.12383652 C136.58463282 -0.13426458 138.58654468 -0.1244227 140.58837891 -0.11352539 C142.26941538 -0.113777 142.26941538 -0.113777 143.98441219 -0.1140337 C147.19824556 0.30511261 148.58777129 0.97519803 150.85768127 3.26069641 C151.74778275 8.39669987 149.83316227 11.79953176 147.19361877 16.03804016 C146.61729454 16.99849243 146.61729454 16.99849243 146.02932739 17.97834778 C144.77631775 20.05951752 143.50499834 22.12878443 142.23268127 24.19819641 C141.36512928 25.629254 140.49868123 27.0609814 139.63331604 28.49336243 C137.88822972 31.37723546 136.13567383 34.25635285 134.37672424 37.13179016 C132.0789039 40.89096614 129.80959517 44.66650449 127.54908752 48.44819641 C126.29830226 50.53184007 125.04703473 52.61519435 123.79518127 54.69819641 C123.2188092 55.66169006 122.64243713 56.62518372 122.04859924 57.61787415 C121.2560675 58.92413757 121.2560675 58.92413757 120.44752502 60.25679016 C119.9924054 61.01145569 119.53728577 61.76612122 119.06837463 62.5436554 C117.85768127 64.26069641 117.85768127 64.26069641 115.85768127 65.26069641 C113.82477247 65.36333648 111.7884441 65.40021885 109.75296021 65.40786743 C108.45035248 65.41502274 107.14774475 65.42217804 105.80566406 65.42955017 C104.35368371 65.43239054 102.9017031 65.43510226 101.44972229 65.43769836 C99.92721908 65.44396175 98.4047174 65.45060844 96.88221741 65.45761108 C92.73970986 65.47502899 88.59721387 65.48557436 84.45467877 65.49381661 C81.86862756 65.49896365 79.28257996 65.50503942 76.6965313 65.51132774 C68.61114247 65.5303795 60.5257628 65.54461233 52.44035584 65.55293971 C43.09586544 65.56272203 33.75161131 65.58906737 24.40720421 65.62944061 C17.19103876 65.65955302 9.97494123 65.67440382 2.75871414 65.67772073 C-1.55459412 65.68007623 -5.86764997 65.68910156 -10.18089104 65.7141819 C-14.23650392 65.73738358 -18.29169678 65.7417281 -22.3473587 65.73142052 C-23.83772996 65.73092315 -25.32812134 65.73730237 -26.81842995 65.75097656 C-28.84908193 65.76856978 -30.87991454 65.75924528 -32.91061401 65.7484436 C-34.0482743 65.75083196 -35.18593458 65.75322031 -36.35806942 65.75568104 C-39.14231873 65.26069641 -39.14231873 65.26069641 -41.03848362 63.41055584 C-42.6358863 60.29941072 -42.09500177 58.5831069 -41.14231873 55.26069641 C-39.70628357 52.40596008 -39.70628357 52.40596008 -37.85325623 49.42866516 C-37.16570251 48.31153137 -36.4781488 47.19439758 -35.76976013 46.04341125 C-35.01915677 44.84487449 -34.26833817 43.6464725 -33.51731873 42.44819641 C-32.36109346 40.58163638 -31.20795898 38.71318932 -30.05488586 36.84468079 C-29.26596109 35.56693612 -28.47585006 34.28992318 -27.68458557 33.0136261 C-25.00158203 28.68028808 -22.37418858 24.31742102 -19.78294373 19.92866516 C-19.26971054 19.06162209 -19.26971054 19.06162209 -18.74610901 18.17706299 C-17.11686347 15.42382752 -15.49341721 12.6674303 -13.87815857 9.90596008 C-13.29759705 8.92731995 -12.71703552 7.94867981 -12.11888123 6.94038391 C-11.61437439 6.08170715 -11.10986755 5.2230304 -10.59007263 4.33833313 C-7.62366779 0.08131707 -4.85975093 0.00890504 0 0 Z " fill="#8AC2FF" transform="translate(84.14231872558594,169.7393035888672)"/>
<path d="M0 0 C1.31102188 -0.00997513 2.62204376 -0.01995026 3.97279358 -0.03022766 C5.43421924 -0.03112353 6.89564506 -0.03178707 8.35707092 -0.03224182 C9.88942877 -0.03985957 11.42178278 -0.0482864 12.95413208 -0.0574646 C17.12351091 -0.07945314 21.29281639 -0.08821419 25.46224666 -0.09329104 C28.0650557 -0.09692916 30.66784537 -0.10316631 33.27064705 -0.11029243 C42.34503655 -0.13480102 51.41936876 -0.14784209 60.49378967 -0.15138245 C68.96222831 -0.15501995 77.430305 -0.1849269 85.89863294 -0.22678703 C93.16151776 -0.26143431 100.4242823 -0.27692991 107.68724924 -0.27762848 C112.02854786 -0.27842314 116.36947796 -0.28724773 120.71069145 -0.31562614 C124.79265602 -0.34171236 128.87394407 -0.34406565 132.9559536 -0.3279705 C134.45600097 -0.32614848 135.9560864 -0.33291447 137.45605087 -0.34878922 C139.49981695 -0.36910443 141.54383588 -0.35576448 143.58764648 -0.34057617 C144.73268111 -0.3425875 145.87771574 -0.34459883 147.05744839 -0.3466711 C149.85731506 0.27415466 149.85731506 0.27415466 151.8173151 2.59886074 C152.85731506 5.27415466 152.85731506 5.27415466 151.76698303 8.69358826 C151.15530498 9.90004943 150.51844021 11.09406477 149.85731506 12.27415466 C149.29802307 13.30492126 148.73873108 14.33568787 148.16249084 15.39768982 C147.54873596 16.44231384 146.93498108 17.48693787 146.30262756 18.56321716 C145.79529335 19.42959557 145.79529335 19.42959557 145.27770996 20.31347656 C144.18375958 22.17806797 143.08344969 24.03879828 141.98231506 25.89915466 C141.22177441 27.18990104 140.46127675 28.48067276 139.70082092 29.77146912 C135.01267655 37.71228481 130.26146839 45.6132998 125.41981506 53.46165466 C124.88308167 54.33322205 124.34634827 55.20478943 123.79335022 56.10276794 C123.05350891 57.2916864 123.05350891 57.2916864 122.29872131 58.50462341 C121.87276672 59.1893573 121.44681213 59.87409119 121.00794983 60.57957458 C119.85731506 62.27415466 119.85731506 62.27415466 117.85731506 64.27415466 C115.18049622 64.52583694 115.18049622 64.52583694 111.707901 64.52812195 C109.73920044 64.53658142 109.73920044 64.53658142 107.73072815 64.54521179 C106.26771491 64.54132281 104.80470221 64.53722645 103.34169006 64.53294373 C101.80771213 64.53565246 100.2737355 64.53921273 98.73976135 64.54356384 C94.56629261 64.55270414 90.39292243 64.54913687 86.2194519 64.54280567 C81.858828 64.53775414 77.49821273 64.54243476 73.1375885 64.545578 C65.8136798 64.54922013 58.4898114 64.5444121 51.16590881 64.53489685 C42.68962246 64.52401182 34.21343231 64.52753723 25.73714828 64.53854966 C18.46918792 64.54761554 11.20125658 64.54891125 3.93329239 64.54367232 C-0.41175158 64.54054876 -4.75675029 64.54015383 -9.10179138 64.5467453 C-13.18605062 64.55250799 -17.27018541 64.54854174 -21.35443115 64.53695679 C-22.85649407 64.53430441 -24.3585674 64.53508509 -25.86062622 64.53948212 C-27.90483739 64.54491604 -29.94907135 64.53690584 -31.99327087 64.52812195 C-33.71220551 64.52699087 -33.71220551 64.52699087 -35.46586609 64.52583694 C-38.14268494 64.27415466 -38.14268494 64.27415466 -40.14268494 62.27415466 C-40.6789862 56.89500054 -39.80944595 53.87347682 -36.95127869 49.34446716 C-36.26042175 48.23055603 -35.56956482 47.1166449 -34.85777283 45.96897888 C-34.09879096 44.77890091 -33.33959013 43.58896255 -32.58018494 42.39915466 C-31.80956295 41.16728164 -31.04062131 39.93435598 -30.27330017 38.70042419 C-29.0901929 36.79886158 -27.90575145 34.89825414 -26.715271 33.001297 C-24.00453678 28.68070208 -21.35264621 24.32911393 -18.74424744 19.94602966 C-18.39997208 19.36775421 -18.05569672 18.78947876 -17.70098877 18.19367981 C-16.06173716 15.43702058 -14.4260853 12.67823409 -12.7908783 9.91917419 C-12.20701355 8.94061462 -11.6231488 7.96205505 -11.02159119 6.95384216 C-10.25697571 5.66582703 -10.25697571 5.66582703 -9.47691345 4.35179138 C-6.69147551 0.01435736 -5.01050107 0.02035663 0 0 Z " fill="#8AC3FF" transform="translate(72.14268493652344,95.72584533691406)"/>
<path d="M0 0 C1.30260773 -0.00571014 2.60521545 -0.01142029 3.94729614 -0.01730347 C5.39927664 -0.01854888 6.85125724 -0.01967396 8.30323792 -0.02069092 C9.82574077 -0.02531797 11.34824246 -0.03034247 12.8707428 -0.03573608 C17.01325522 -0.04887146 21.15575143 -0.05530705 25.29828143 -0.05974674 C27.88433282 -0.06267513 30.47037976 -0.06677945 33.05642891 -0.07125092 C41.14182053 -0.08492774 49.22720198 -0.09459396 57.31260437 -0.09845281 C66.65705173 -0.10293667 76.00135305 -0.12049895 85.34575599 -0.1494534 C92.56192243 -0.17104005 99.77804767 -0.18115544 106.99424607 -0.18249393 C111.30750484 -0.18354396 115.62062636 -0.18949392 119.93385124 -0.20731354 C123.98941375 -0.22374262 128.04473507 -0.22597507 132.10031891 -0.21717453 C133.59068254 -0.21640142 135.08105887 -0.2207828 136.57139015 -0.23063278 C138.60207921 -0.24326953 140.63286432 -0.2357141 142.66357422 -0.22705078 C143.8012345 -0.22851734 144.93889479 -0.2299839 146.11102962 -0.2314949 C148.89527893 0.14044189 148.89527893 0.14044189 150.78946018 1.46007156 C151.89527893 3.14044189 151.89527893 3.14044189 151.82008362 6.39385986 C150.82510499 10.42473157 149.25717877 13.59362902 147.09840393 17.08575439 C146.52016876 18.05221893 146.52016876 18.05221893 145.93025208 19.03820801 C144.68001988 21.12109472 143.41327311 23.19332907 142.14527893 25.26544189 C141.2792118 26.69804426 140.41398217 28.13115325 139.54957581 29.5647583 C137.4078536 33.10988008 135.25174678 36.64600093 133.09132385 40.17974854 C131.97998275 42.00158573 130.87441925 43.82672769 129.77223206 45.65411377 C127.98766385 48.61269234 126.19423594 51.56559607 124.39527893 54.51544189 C123.87481995 55.37540771 123.35436096 56.23537354 122.81813049 57.12139893 C122.33827698 57.89854248 121.85842346 58.67568604 121.36402893 59.47637939 C120.75204651 60.47483887 120.75204651 60.47483887 120.12770081 61.49346924 C118.89527893 63.14044189 118.89527893 63.14044189 115.89527893 65.14044189 C113.14785099 65.39491749 113.14785099 65.39491749 109.75296021 65.40113831 C107.82439682 65.41176552 107.82439682 65.41176552 105.85687256 65.42260742 C104.4290005 65.42031352 103.00112878 65.41780381 101.57325745 65.4151001 C100.07193243 65.41944652 98.57060964 65.42462943 97.06929016 65.43058777 C92.98872593 65.44399663 88.90825422 65.44455435 84.82767224 65.44202447 C81.42299143 65.44095603 78.01832944 65.44583487 74.61365265 65.45062989 C66.58243243 65.46173161 58.55125897 65.46215876 50.52003479 65.45611572 C42.23061825 65.45007439 33.94137138 65.46238943 25.6519838 65.48368579 C18.53853286 65.50129008 11.42513598 65.50730501 4.31166404 65.50404805 C0.06155565 65.50223316 -4.18843172 65.50489177 -8.43852043 65.51876259 C-12.43501985 65.5313173 -16.43125439 65.52941936 -20.42774963 65.5163517 C-21.89511262 65.5139812 -23.36249411 65.51673755 -24.82983589 65.52497482 C-26.83167262 65.53540288 -28.83358447 65.525561 -30.8354187 65.5146637 C-32.51645518 65.51491531 -32.51645518 65.51491531 -34.23145199 65.515172 C-37.44528536 65.09602569 -38.83481109 64.42594027 -41.10472107 62.14044189 C-41.99482254 57.00443844 -40.08020207 53.60160655 -37.44065857 49.36309814 C-37.05644241 48.72279663 -36.67222626 48.08249512 -36.27636719 47.42279053 C-35.02335755 45.34162078 -33.75203814 43.27235388 -32.47972107 41.20294189 C-31.61216907 39.7718843 -30.74572102 38.3401569 -29.88035583 36.90777588 C-28.13526951 34.02390284 -26.38271363 31.14478546 -24.62376404 28.26934814 C-22.32594369 24.51017217 -20.05663497 20.73463382 -17.79612732 16.95294189 C-16.54534206 14.86929823 -15.29407453 12.78594396 -14.04222107 10.70294189 C-13.465849 9.73944824 -12.88947693 8.77595459 -12.29563904 7.78326416 C-11.76728455 6.91242187 -11.23893005 6.04157959 -10.69456482 5.14434814 C-10.23944519 4.38968262 -9.78432556 3.63501709 -9.31541443 2.85748291 C-6.87420514 -0.60471208 -3.9553948 0.01034568 0 0 Z M-15.53872508 34.5162887 C-18.05206652 40.27311065 -21.21353605 45.45095875 -24.60163021 50.731143 C-26.19293936 52.80856019 -26.19293936 52.80856019 -26.10472107 54.14044189 C-8.41553897 54.51483336 9.27261033 54.79664526 26.96490288 54.96943665 C35.18067516 55.05181514 43.39398109 55.16402681 51.60816956 55.34747314 C58.77108974 55.50736487 65.932224 55.61026428 73.09687912 55.64585781 C76.88888222 55.66665806 80.67577862 55.71520089 84.46613693 55.8321228 C99.45735649 56.98712707 99.45735649 56.98712707 113.10600662 52.60581589 C116.54574963 48.93867756 118.46207173 44.88084305 120.11268616 40.17704391 C121.37409139 36.89439101 123.2472694 34.1291495 125.15309143 31.17950439 C126.44362925 29.04237376 127.73271902 26.90436795 129.02027893 24.76544189 C129.69059143 23.66200439 130.36090393 22.55856689 131.05152893 21.42169189 C131.68316956 20.37239502 132.31481018 19.32309814 132.96559143 18.24200439 C133.53036194 17.30695068 134.09513245 16.37189697 134.67701721 15.4085083 C136.05301053 13.27588028 136.05301053 13.27588028 135.89527893 11.14044189 C118.32831255 10.46024735 100.76549667 9.95037037 83.18834019 9.63788891 C75.02454982 9.48886888 66.86897412 9.28619897 58.71046448 8.95269775 C51.59102027 8.66181223 44.47751861 8.47617349 37.3522982 8.41187555 C33.58221204 8.37430283 29.82910292 8.28762888 26.06453133 8.07427025 C2.90371453 6.81256926 -6.52903157 13.80661052 -15.53872508 34.5162887 Z " fill="#2D58FF" transform="translate(62.10472106933594,20.85955810546875)"/>
<path d="M0 0 C1.28570892 -0.00708481 2.57141785 -0.01416962 3.89608765 -0.02146912 C5.3239597 -0.01917521 6.75183142 -0.0166655 8.17970276 -0.01396179 C9.68102777 -0.01830821 11.18235056 -0.02349113 12.68367004 -0.02944946 C16.76423427 -0.04285832 20.84470599 -0.04341604 24.92528796 -0.04088616 C28.32996877 -0.03981772 31.73463077 -0.04469657 35.13930756 -0.04949158 C43.17052778 -0.06059331 51.20170123 -0.06102045 59.23292542 -0.05497742 C67.52234195 -0.04893608 75.81158882 -0.06125113 84.10097641 -0.08254749 C91.21442735 -0.10015178 98.32782423 -0.1061667 105.44129616 -0.10290974 C109.69140456 -0.10109485 113.94139193 -0.10375347 118.19148064 -0.11762428 C122.18798005 -0.13017899 126.1842146 -0.12828106 130.18070984 -0.11521339 C131.64807283 -0.11284289 133.11545432 -0.11559924 134.5827961 -0.12383652 C136.58463282 -0.13426458 138.58654468 -0.1244227 140.58837891 -0.11352539 C142.26941538 -0.113777 142.26941538 -0.113777 143.98441219 -0.1140337 C147.19824556 0.30511261 148.58777129 0.97519803 150.85768127 3.26069641 C151.74778275 8.39669987 149.83316227 11.79953176 147.19361877 16.03804016 C146.61729454 16.99849243 146.61729454 16.99849243 146.02932739 17.97834778 C144.77631775 20.05951752 143.50499834 22.12878443 142.23268127 24.19819641 C141.36512928 25.629254 140.49868123 27.0609814 139.63331604 28.49336243 C137.88822972 31.37723546 136.13567383 34.25635285 134.37672424 37.13179016 C132.0789039 40.89096614 129.80959517 44.66650449 127.54908752 48.44819641 C126.29830226 50.53184007 125.04703473 52.61519435 123.79518127 54.69819641 C123.2188092 55.66169006 122.64243713 56.62518372 122.04859924 57.61787415 C121.2560675 58.92413757 121.2560675 58.92413757 120.44752502 60.25679016 C119.9924054 61.01145569 119.53728577 61.76612122 119.06837463 62.5436554 C117.85768127 64.26069641 117.85768127 64.26069641 115.85768127 65.26069641 C113.82477247 65.36333648 111.7884441 65.40021885 109.75296021 65.40786743 C108.45035248 65.41502274 107.14774475 65.42217804 105.80566406 65.42955017 C104.35368371 65.43239054 102.9017031 65.43510226 101.44972229 65.43769836 C99.92721908 65.44396175 98.4047174 65.45060844 96.88221741 65.45761108 C92.73970986 65.47502899 88.59721387 65.48557436 84.45467877 65.49381661 C81.86862756 65.49896365 79.28257996 65.50503942 76.6965313 65.51132774 C68.61114247 65.5303795 60.5257628 65.54461233 52.44035584 65.55293971 C43.09586544 65.56272203 33.75161131 65.58906737 24.40720421 65.62944061 C17.19103876 65.65955302 9.97494123 65.67440382 2.75871414 65.67772073 C-1.55459412 65.68007623 -5.86764997 65.68910156 -10.18089104 65.7141819 C-14.23650392 65.73738358 -18.29169678 65.7417281 -22.3473587 65.73142052 C-23.83772996 65.73092315 -25.32812134 65.73730237 -26.81842995 65.75097656 C-28.84908193 65.76856978 -30.87991454 65.75924528 -32.91061401 65.7484436 C-34.0482743 65.75083196 -35.18593458 65.75322031 -36.35806942 65.75568104 C-39.14231873 65.26069641 -39.14231873 65.26069641 -41.03848362 63.41055584 C-42.6358863 60.29941072 -42.09500177 58.5831069 -41.14231873 55.26069641 C-39.70628357 52.40596008 -39.70628357 52.40596008 -37.85325623 49.42866516 C-37.16570251 48.31153137 -36.4781488 47.19439758 -35.76976013 46.04341125 C-35.01915677 44.84487449 -34.26833817 43.6464725 -33.51731873 42.44819641 C-32.36109346 40.58163638 -31.20795898 38.71318932 -30.05488586 36.84468079 C-29.26596109 35.56693612 -28.47585006 34.28992318 -27.68458557 33.0136261 C-25.00158203 28.68028808 -22.37418858 24.31742102 -19.78294373 19.92866516 C-19.26971054 19.06162209 -19.26971054 19.06162209 -18.74610901 18.17706299 C-17.11686347 15.42382752 -15.49341721 12.6674303 -13.87815857 9.90596008 C-13.29759705 8.92731995 -12.71703552 7.94867981 -12.11888123 6.94038391 C-11.61437439 6.08170715 -11.10986755 5.2230304 -10.59007263 4.33833313 C-7.62366779 0.08131707 -4.85975093 0.00890504 0 0 Z M-15.57632273 33.78978276 C-18.11854551 39.43592994 -21.28289004 44.54099539 -24.63922787 49.73637772 C-26.31285692 52.05744545 -26.31285692 52.05744545 -26.14231873 54.26069641 C-8.57535235 54.94089095 8.98746354 55.45076794 26.56462002 55.7632494 C34.72841038 55.91226943 42.88398608 56.11493934 51.04249573 56.44844055 C58.16193994 56.73932608 65.2754416 56.92496482 72.400662 56.98926276 C76.17074816 57.02683548 79.92385729 57.11350942 83.68842888 57.32686806 C97.64419357 58.12145109 97.64419357 58.12145109 110.85768127 54.26069641 C117.60776925 47.73530372 121.58526885 39.40441705 125.29168528 30.88484961 C127.80502673 25.12802765 130.96649625 19.95017955 134.35459042 14.66999531 C135.94589956 12.59257811 135.94589956 12.59257811 135.85768127 11.26069641 C118.29057828 10.60395175 100.72734541 10.11165233 83.15074253 9.8099556 C74.9872567 9.66607956 66.8314296 9.47039499 58.67286682 9.14839172 C51.55342595 8.86753686 44.43952627 8.68829589 37.31470054 8.62621856 C33.54512096 8.58994633 29.79137235 8.50624899 26.02693367 8.30025482 C3.32708466 7.1063772 -6.43362355 13.46478981 -15.57632273 33.78978276 Z " fill="#2E58FF" transform="translate(84.14231872558594,169.7393035888672)"/>
<path d="M0 0 C1.31102188 -0.00997513 2.62204376 -0.01995026 3.97279358 -0.03022766 C5.43421924 -0.03112353 6.89564506 -0.03178707 8.35707092 -0.03224182 C9.88942877 -0.03985957 11.42178278 -0.0482864 12.95413208 -0.0574646 C17.12351091 -0.07945314 21.29281639 -0.08821419 25.46224666 -0.09329104 C28.0650557 -0.09692916 30.66784537 -0.10316631 33.27064705 -0.11029243 C42.34503655 -0.13480102 51.41936876 -0.14784209 60.49378967 -0.15138245 C68.96222831 -0.15501995 77.430305 -0.1849269 85.89863294 -0.22678703 C93.16151776 -0.26143431 100.4242823 -0.27692991 107.68724924 -0.27762848 C112.02854786 -0.27842314 116.36947796 -0.28724773 120.71069145 -0.31562614 C124.79265602 -0.34171236 128.87394407 -0.34406565 132.9559536 -0.3279705 C134.45600097 -0.32614848 135.9560864 -0.33291447 137.45605087 -0.34878922 C139.49981695 -0.36910443 141.54383588 -0.35576448 143.58764648 -0.34057617 C144.73268111 -0.3425875 145.87771574 -0.34459883 147.05744839 -0.3466711 C149.85731506 0.27415466 149.85731506 0.27415466 151.8173151 2.59886074 C152.85731506 5.27415466 152.85731506 5.27415466 151.76698303 8.69358826 C151.15530498 9.90004943 150.51844021 11.09406477 149.85731506 12.27415466 C149.29802307 13.30492126 148.73873108 14.33568787 148.16249084 15.39768982 C147.54873596 16.44231384 146.93498108 17.48693787 146.30262756 18.56321716 C145.79529335 19.42959557 145.79529335 19.42959557 145.27770996 20.31347656 C144.18375958 22.17806797 143.08344969 24.03879828 141.98231506 25.89915466 C141.22177441 27.18990104 140.46127675 28.48067276 139.70082092 29.77146912 C135.01267655 37.71228481 130.26146839 45.6132998 125.41981506 53.46165466 C124.88308167 54.33322205 124.34634827 55.20478943 123.79335022 56.10276794 C123.05350891 57.2916864 123.05350891 57.2916864 122.29872131 58.50462341 C121.87276672 59.1893573 121.44681213 59.87409119 121.00794983 60.57957458 C119.85731506 62.27415466 119.85731506 62.27415466 117.85731506 64.27415466 C115.18049622 64.52583694 115.18049622 64.52583694 111.707901 64.52812195 C109.73920044 64.53658142 109.73920044 64.53658142 107.73072815 64.54521179 C106.26771491 64.54132281 104.80470221 64.53722645 103.34169006 64.53294373 C101.80771213 64.53565246 100.2737355 64.53921273 98.73976135 64.54356384 C94.56629261 64.55270414 90.39292243 64.54913687 86.2194519 64.54280567 C81.858828 64.53775414 77.49821273 64.54243476 73.1375885 64.545578 C65.8136798 64.54922013 58.4898114 64.5444121 51.16590881 64.53489685 C42.68962246 64.52401182 34.21343231 64.52753723 25.73714828 64.53854966 C18.46918792 64.54761554 11.20125658 64.54891125 3.93329239 64.54367232 C-0.41175158 64.54054876 -4.75675029 64.54015383 -9.10179138 64.5467453 C-13.18605062 64.55250799 -17.27018541 64.54854174 -21.35443115 64.53695679 C-22.85649407 64.53430441 -24.3585674 64.53508509 -25.86062622 64.53948212 C-27.90483739 64.54491604 -29.94907135 64.53690584 -31.99327087 64.52812195 C-33.71220551 64.52699087 -33.71220551 64.52699087 -35.46586609 64.52583694 C-38.14268494 64.27415466 -38.14268494 64.27415466 -40.14268494 62.27415466 C-40.6789862 56.89500054 -39.80944595 53.87347682 -36.95127869 49.34446716 C-36.26042175 48.23055603 -35.56956482 47.1166449 -34.85777283 45.96897888 C-34.09879096 44.77890091 -33.33959013 43.58896255 -32.58018494 42.39915466 C-31.80956295 41.16728164 -31.04062131 39.93435598 -30.27330017 38.70042419 C-29.0901929 36.79886158 -27.90575145 34.89825414 -26.715271 33.001297 C-24.00453678 28.68070208 -21.35264621 24.32911393 -18.74424744 19.94602966 C-18.39997208 19.36775421 -18.05569672 18.78947876 -17.70098877 18.19367981 C-16.06173716 15.43702058 -14.4260853 12.67823409 -12.7908783 9.91917419 C-12.20701355 8.94061462 -11.6231488 7.96205505 -11.02159119 6.95384216 C-10.25697571 5.66582703 -10.25697571 5.66582703 -9.47691345 4.35179138 C-6.69147551 0.01435736 -5.01050107 0.02035663 0 0 Z M-6.81065369 18.93455505 C-7.77495307 21.01016404 -8.60260101 23.0754573 -9.36009216 25.23470497 C-10.6232748 28.52657978 -12.49740566 31.30778423 -14.40049744 34.27024841 C-15.69107262 36.41647494 -16.980163 38.5635951 -18.26768494 40.71165466 C-18.93799744 41.82347107 -19.60830994 42.93528748 -20.29893494 44.08079529 C-21.24639587 45.65957458 -21.24639587 45.65957458 -22.21299744 47.27024841 C-23.0601532 48.6806842 -23.0601532 48.6806842 -23.92442322 50.11961365 C-25.22471886 52.00671504 -25.22471886 52.00671504 -25.14268494 53.27415466 C-7.45350284 53.64854613 10.23464646 53.93035803 27.92693901 54.10314941 C36.1427113 54.18552791 44.35601722 54.29773958 52.57020569 54.48118591 C59.73312587 54.64107764 66.89426013 54.74397705 74.05891526 54.77957058 C77.85091835 54.80037083 81.63781475 54.84891366 85.42817307 54.96583557 C100.41902118 56.12052669 100.41902118 56.12052669 114.06804276 51.74009514 C117.50795303 48.07407814 119.42474052 44.01691907 121.07472229 39.31360435 C122.33790493 36.02172954 124.21203578 33.2405251 126.11512756 30.27806091 C127.40570275 28.13183438 128.69479312 25.98471423 129.98231506 23.83665466 C130.65262756 22.72483826 131.32294006 21.61302185 132.01356506 20.46751404 C132.64520569 19.41499451 133.27684631 18.36247498 133.92762756 17.27806091 C134.49239807 16.33777039 135.05716858 15.39747986 135.63905334 14.42869568 C136.93934898 12.54159429 136.93934898 12.54159429 136.85731506 11.27415466 C119.16813297 10.89976319 101.47998366 10.6179513 83.78769112 10.44515991 C75.57191883 10.36278142 67.35861291 10.25056975 59.14442444 10.06712341 C51.98150426 9.90723169 44.82037 9.80433228 37.65571487 9.76873875 C33.86371178 9.7479385 30.07681538 9.69939567 26.28645706 9.58247375 C7.06534527 8.04377585 7.06534527 8.04377585 -6.81065369 18.93455505 Z " fill="#305AFF" transform="translate(72.14268493652344,95.72584533691406)"/>
</svg>
